<?xml version="1.0" standalone="no"?><!DOCTYPE svg PUBLIC "-//W3C//DTD SVG 1.1//EN" "http://www.w3.org/Graphics/SVG/1.1/DTD/svg11.dtd"><svg t="1715585264351" class="icon" viewBox="0 0 1024 1024" version="1.1" xmlns="http://www.w3.org/2000/svg" p-id="82881" xmlns:xlink="http://www.w3.org/1999/xlink" width="200" height="200"><path d="M887.263456 778.508031a121.832243 121.832243 0 0 0-60.916122 17.665675l-182.748364-182.748364A215.033908 215.033908 0 0 0 688.6769 487.328971v-22.538965l135.842951-42.032124A91.374182 91.374182 0 1 0 803.199208 365.496728l-132.187983 40.20464A217.470553 217.470553 0 0 0 559.534723 286.914932L602.176008 182.748364h4.873289a91.374182 91.374182 0 1 0-91.374182-91.374182 89.546698 89.546698 0 0 0 30.458061 67.616895L498.618601 271.07674a208.333135 208.333135 0 0 0-28.021415 0 215.033908 215.033908 0 0 0-129.751339 43.859607L237.897602 208.333135a121.832243 121.832243 0 0 0 17.056514-60.916121 121.832243 121.832243 0 1 0-121.832243 121.832242 121.832243 121.832243 0 0 0 60.916122-17.665675l104.775728 104.166568a213.815586 213.815586 0 0 0 13.401547 275.340868l-127.923855 128.533016a85.891731 85.891731 0 0 0-32.894705-6.700773 91.374182 91.374182 0 1 0 91.374182 91.374182 93.810827 93.810827 0 0 0-12.183225-45.07793L359.729845 670.077335a213.206425 213.206425 0 0 0 112.085663 32.285544 217.470553 217.470553 0 0 0 129.751338-43.859607l182.748365 182.748364a121.832243 121.832243 0 0 0-17.056514 60.916121 121.832243 121.832243 0 1 0 121.832242-121.832242z" p-id="82882" fill="#ffffff"></path></svg>